<?xml version="1.0" encoding="UTF-8" standalone="no"?>
<svg
   xmlns:dc="http://purl.org/dc/elements/1.1/"
   xmlns:cc="http://creativecommons.org/ns#"
   xmlns:rdf="http://www.w3.org/1999/02/22-rdf-syntax-ns#"
   xmlns:svg="http://www.w3.org/2000/svg"
   xmlns="http://www.w3.org/2000/svg"
   xmlns:sodipodi="http://sodipodi.sourceforge.net/DTD/sodipodi-0.dtd"
   xmlns:inkscape="http://www.inkscape.org/namespaces/inkscape"
   enable-background="new 0 0 200 200"
   height="200px"
   id="Layer_1"
   version="1.1"
   viewBox="0 0 200 200"
   width="200px"
   xml:space="preserve"
   inkscape:version="0.48.4 r9939"
   sodipodi:docname="grupo_preto.svg"
   inkscape:export-filename="/home/willian/Repositories/ifpr/sorteio-equipes/imagens/grupo_preto.png"
   inkscape:export-xdpi="21.6"
   inkscape:export-ydpi="21.6"><metadata
     id="metadata17"><rdf:RDF><cc:Work
         rdf:about=""><dc:format>image/svg+xml</dc:format><dc:type
           rdf:resource="http://purl.org/dc/dcmitype/StillImage" /><dc:title></dc:title></cc:Work></rdf:RDF></metadata><defs
     id="defs15" /><sodipodi:namedview
     pagecolor="#ffffff"
     bordercolor="#666666"
     borderopacity="1"
     objecttolerance="10"
     gridtolerance="10"
     guidetolerance="10"
     inkscape:pageopacity="0"
     inkscape:pageshadow="2"
     inkscape:window-width="1301"
     inkscape:window-height="744"
     id="namedview13"
     showgrid="false"
     inkscape:zoom="3.17"
     inkscape:cx="98.432653"
     inkscape:cy="110.47787"
     inkscape:window-x="65"
     inkscape:window-y="24"
     inkscape:window-maximized="1"
     inkscape:current-layer="Layer_1" /><g
     id="g3"
     style="fill:#000000"
     inkscape:export-xdpi="29.313175"
     inkscape:export-ydpi="29.313175"
     inkscape:export-filename="/home/willian/Repositories/ifpr/sorteio-equipes/imagens/grupo_preto.png"><path
       d="M155.813,112.706c-0.422-1.85-1.445-3.597-3.061-5.008c-1.624-1.401-3.607-2.246-5.663-2.557l-33.054-6.396   l9.563,6.347l-15.097,47.324L100,117.264l-8.505,35.153l-15.09-47.324l9.559-6.347l-33.054,6.396   c-2.056,0.311-4.038,1.155-5.664,2.557c-1.616,1.411-2.64,3.158-3.06,5.008l-9.8,43.046l18.487,6.415   c6.137,6.38,23.317,11.073,43.922,11.52H100h3.203c20.605-0.446,37.783-5.14,43.922-11.52l18.488-6.415L155.813,112.706z"
       fill="#5E889E"
       id="path5"
       style="fill:#000000" /><polygon
       fill="#5E889E"
       points="100,103.551 92.381,106.279 100,117.264 107.621,106.279  "
       id="polygon7"
       style="fill:#000000" /><path
       d="M128.289,61.162c0-19.537-8.04-34.848-28.289-34.848c-20.251,0-28.287,15.312-28.287,34.848   c-2.118,1.105-3.509,3.698-1.429,9.255c1.049,2.79,2.898,5.128,4.467,6.352c5.771,14.368,17.12,25.46,25.249,25.46   c8.129,0,19.479-11.092,25.247-25.46c1.571-1.224,3.417-3.563,4.469-6.352C131.796,64.859,130.406,62.267,128.289,61.162z"
       fill="#5E889E"
       id="path9"
       style="fill:#000000" /><path
       d="M31.956,145.935c-9.436-1.115-16.874-3.665-19.969-6.881L0,134.894l6.354-27.909   c0.273-1.199,0.938-2.333,1.985-3.246c1.054-0.908,2.339-1.458,3.672-1.658l23.215-5.317c-3.493-2.987-6.884-7.671-9.053-13.08   c-1.018-0.792-2.217-2.308-2.898-4.118c-1.35-3.601-0.448-5.282,0.926-6c0-12.666,5.208-22.593,18.339-22.593h0.003   c13.128,0,18.339,9.927,18.339,22.593c1.374,0.718,2.276,2.399,0.928,6c-0.682,1.81-1.881,3.326-2.899,4.118   c-2.169,5.408-5.561,10.092-9.053,13.08l10.265,2.352l-7.991,1.545c-2.95,0.46-5.667,1.705-7.875,3.612   c-2.295,2.005-3.855,4.571-4.506,7.423L31.956,145.935z M193.646,106.984c-0.275-1.199-0.938-2.333-1.985-3.246   c-1.052-0.908-2.337-1.458-3.672-1.658l-23.214-5.317c3.493-2.987,6.883-7.671,9.055-13.08c1.019-0.792,2.215-2.308,2.896-4.118   c1.35-3.601,0.448-5.282-0.925-6c0-12.666-5.214-22.593-18.343-22.593l0,0c-13.13,0-18.341,9.927-18.341,22.593   c-1.372,0.718-2.275,2.399-0.925,6c0.679,1.81,1.878,3.326,2.896,4.118c2.171,5.408,5.562,10.092,9.055,13.08l-10.267,2.352   l7.991,1.545c2.948,0.46,5.667,1.705,7.856,3.594c2.314,2.022,3.871,4.589,4.522,7.437l7.796,34.244   c9.436-1.115,16.874-3.665,19.97-6.881l11.986-4.16L193.646,106.984z"
       fill="#5E889E"
       id="path11"
       style="fill:#000000" /></g><path
     style="fill:#000000;fill-opacity:1;stroke:#000112;stroke-width:1.08644067999999994;stroke-miterlimit:4;stroke-opacity:1;stroke-dasharray:1.08644067999999994, 1.08644067999999994;stroke-dashoffset:0"
     d="m 88.135593,172.72872 c -14.95536,-1.73187 -26.683885,-4.92953 -31.875959,-8.69065 -1.833066,-1.32786 -6.946883,-3.62466 -11.364037,-5.10398 -4.417155,-1.47932 -8.454362,-2.96967 -8.971571,-3.31188 -1.187383,-0.78564 8.137709,-42.41369 10.209332,-45.57539 0.773977,-1.18123 2.627972,-2.69911 4.119988,-3.37305 2.430298,-1.09776 28.179112,-6.33479 31.146159,-6.33479 0.658533,0 -0.225939,0.96714 -1.965492,2.1492 -1.739555,1.18206 -3.173077,2.42146 -3.185606,2.75424 -0.05347,1.42005 14.894594,47.45156 15.323183,47.18667 0.259839,-0.16058 2.167191,-7.36944 4.238558,-16.01968 2.071368,-8.65023 3.956801,-15.72769 4.189852,-15.72769 0.23305,0 2.11848,7.07746 4.18985,15.72769 2.07137,8.65024 3.97872,15.8591 4.23856,16.01968 0.42859,0.26489 15.37665,-45.76662 15.32318,-47.18667 -0.0125,-0.33278 -1.44605,-1.57218 -3.1856,-2.75424 -1.73956,-1.18206 -2.62403,-2.1492 -1.9655,-2.1492 2.96705,0 28.71587,5.23703 31.14616,6.33479 1.49202,0.67394 3.33341,2.17258 4.09199,3.33031 2.05695,3.13931 11.41651,44.84009 10.23879,45.61813 -0.51801,0.34221 -4.55587,1.83256 -8.97302,3.31188 -4.41716,1.47932 -9.49657,3.75119 -11.28759,5.0486 -3.84463,2.78503 -11.12086,5.31437 -20.51174,7.1302 -6.5803,1.27239 -29.172127,2.31035 -35.169487,1.61583 l 0,0 z"
     id="path2986"
     inkscape:connector-curvature="0"
     inkscape:export-filename="/home/willian/Repositories/ifpr/sorteio-equipes/imagens/grupo_preto.png"
     inkscape:export-xdpi="29.313175"
     inkscape:export-ydpi="29.313175" /><path
     style="fill:#000000;fill-opacity:1;stroke:#000112;stroke-width:1.08644067999999994;stroke-miterlimit:4;stroke-opacity:1;stroke-dasharray:1.08644067999999994, 1.08644067999999994;stroke-dashoffset:0"
     d="M 97.257665,101.16918 C 90.892118,99.309845 83.38482,92.003217 78.213229,82.633802 76.513205,79.553855 74.076663,75.484278 72.79869,73.590298 69.764178,69.093095 68.889936,64.62096 70.692858,62.818037 c 0.737572,-0.737572 1.347662,-2.607686 1.355755,-4.155809 0.0081,-1.548124 0.55072,-5.343569 1.205838,-8.434322 C 76.536136,34.745368 85.313437,27.182309 100,27.182309 c 14.68656,0 23.46386,7.563059 26.74555,23.045597 0.65512,3.090753 1.19774,6.886198 1.20584,8.434322 0.008,1.548123 0.61818,3.418237 1.35575,4.155809 1.80292,1.802923 0.92868,6.275058 -2.10583,10.772261 -1.27797,1.89398 -3.71452,5.963557 -5.41454,9.043504 -7.00915,12.698542 -17.46431,20.598968 -24.529105,18.535378 l 0,0 z"
     id="path2988"
     inkscape:connector-curvature="0"
     inkscape:export-filename="/home/willian/Repositories/ifpr/sorteio-equipes/imagens/grupo_preto.png"
     inkscape:export-xdpi="29.313175"
     inkscape:export-ydpi="29.313175" /><path
     style="fill:#000000;fill-opacity:1;stroke:#000112;stroke-width:1.08644067999999994;stroke-miterlimit:4;stroke-opacity:1;stroke-dasharray:1.08644067999999994, 1.08644067999999994;stroke-dashoffset:0"
     d="m 96.355879,111.15988 -3.125503,-4.46496 2.32549,-1.0211 c 2.954812,-1.29743 5.928864,-1.29743 8.905234,0 l 2.34246,1.0211 -3.01679,4.23728 c -1.65924,2.33051 -3.30673,4.33975 -3.66109,4.46497 -0.354365,0.12522 -2.050775,-1.78155 -3.769801,-4.23729 z"
     id="path2990"
     inkscape:connector-curvature="0"
     inkscape:export-filename="/home/willian/Repositories/ifpr/sorteio-equipes/imagens/grupo_preto.png"
     inkscape:export-xdpi="29.313175"
     inkscape:export-ydpi="29.313175" /><path
     style="fill:#000000;fill-opacity:1;stroke:#000112;stroke-width:1.08644067999999994;stroke-miterlimit:4;stroke-opacity:1;stroke-dasharray:1.08644067999999994, 1.08644067999999994;stroke-dashoffset:0"
     d="m 168.20722,144.19492 c -0.211,-0.58263 -2.09651,-8.59878 -4.19001,-17.81369 -2.09349,-9.21489 -4.1642,-17.41405 -4.60157,-18.22033 -1.97232,-3.63602 -6.17751,-6.47495 -11.73989,-7.92562 -3.14963,-0.82143 -5.15456,-1.517617 -4.45541,-1.547086 0.69915,-0.02947 2.74658,-0.463244 4.54984,-0.963946 l 3.27865,-0.910366 -2.54634,-2.686602 c -1.40049,-1.477631 -4.30597,-5.615427 -6.45662,-9.195104 -3.76097,-6.25999 -4.72845,-9.411231 -3.1827,-10.366557 0.40016,-0.247316 0.93042,-2.686799 1.17836,-5.421074 0.8048,-8.875472 5.05503,-14.682004 12.28541,-16.783931 5.27685,-1.534022 11.49266,-0.616224 15.59108,2.302107 3.15378,2.245689 6.33957,8.525172 7.06356,13.92291 0.31064,2.316038 0.9602,5.248527 1.44346,6.51664 0.71579,1.878311 0.55263,2.820759 -0.88032,5.084746 -0.96743,1.528497 -2.55607,4.35642 -3.53032,6.284275 -0.97424,1.927855 -3.11459,5.074467 -4.75633,6.992472 -2.05981,2.406423 -2.63594,3.600279 -1.85881,3.851861 0.61939,0.200518 4.74905,1.170878 9.17701,2.156356 12.85343,2.860629 16.84831,4.179829 17.74794,5.860799 0.77172,1.44197 6.82833,26.89454 6.82833,28.69568 0,0.4334 -1.62076,1.26369 -3.60169,1.8451 -1.98093,0.58141 -6.46187,2.49944 -9.95763,4.26231 -3.49576,1.76287 -8.37682,3.63567 -10.8468,4.16179 -5.63935,1.20121 -6.0694,1.19445 -6.5392,-0.10274 z"
     id="path2992"
     inkscape:connector-curvature="0"
     inkscape:export-filename="/home/willian/Repositories/ifpr/sorteio-equipes/imagens/grupo_preto.png"
     inkscape:export-xdpi="29.313175"
     inkscape:export-ydpi="29.313175" /><path
     style="fill:#000000;fill-opacity:1;stroke:#000112;stroke-width:1.08644067999999994;stroke-miterlimit:4;stroke-opacity:1;stroke-dasharray:1.08644067999999994, 1.08644067999999994;stroke-dashoffset:0"
     d="m 24.152542,144.06724 c -2.330508,-0.59031 -6.906779,-2.43747 -10.169491,-4.10481 -3.262712,-1.66734 -7.5529663,-3.50728 -9.5338985,-4.08874 -1.9809322,-0.58148 -3.60169487,-1.41183 -3.60169487,-1.84523 0,-1.80114 6.05661437,-27.25371 6.82833477,-28.69568 0.8996262,-1.68097 4.8945116,-3.00017 17.7479366,-5.860799 4.427966,-0.985478 8.551429,-1.953461 9.16325,-2.151074 0.76735,-0.247849 0.255618,-1.379825 -1.649757,-3.649343 -2.743053,-3.267285 -6.262931,-9.010044 -8.781075,-14.326511 -0.864145,-1.824442 -1.055904,-3.274481 -0.560353,-4.237288 0.414347,-0.805034 1.015208,-3.518101 1.335248,-6.02904 0.725469,-5.691817 3.907354,-12.106367 7.15094,-14.416004 4.098419,-2.918331 10.314229,-3.836129 15.59108,-2.302107 7.230376,2.101927 11.48061,7.908459 12.285409,16.783931 0.247936,2.734275 0.778199,5.173758 1.178364,5.421074 1.258743,0.777945 0.792248,4.275537 -0.850862,6.379416 -0.868138,1.111587 -2.410079,3.659013 -3.426535,5.660948 -1.016457,2.001935 -3.188885,5.123969 -4.827621,6.937853 l -2.979518,3.29797 3.228087,0.896405 c 1.775449,0.493022 3.800122,0.920514 4.499275,0.949983 0.699153,0.02947 -1.370401,0.741922 -4.599007,1.583236 -4.732727,1.23325 -6.474648,2.17765 -8.98964,4.87386 -3.320033,3.55925 -2.789964,1.81987 -9.511325,31.21064 -2.183936,9.54979 -2.20418,9.56617 -9.527147,7.71131 z"
     id="path2994"
     inkscape:connector-curvature="0"
     inkscape:export-filename="/home/willian/Repositories/ifpr/sorteio-equipes/imagens/grupo_preto.png"
     inkscape:export-xdpi="29.313175"
     inkscape:export-ydpi="29.313175" /></svg>